<?xml version="1.0" encoding="UTF-8"?><svg id="Layer_2" xmlns="http://www.w3.org/2000/svg" xmlns:xlink="http://www.w3.org/1999/xlink" viewBox="0 0 158.68 153.26"><defs><style>.cls-1{fill:none;}.cls-2{fill:#fcc247;}.cls-3{clip-path:url(#clippath);}</style><clipPath id="clippath"><circle class="cls-1" cx="79.34" cy="76.63" r="75"/></clipPath></defs><g id="Layer_1-2"><g class="cls-3"><rect class="cls-2" width="158.68" height="153.26"/><path d="M57.27,42.73c-6.57.31-13.98,3.85-16.85,9.96-3.59,8.55,6.92,9.05,12.83,8.45,8.41-.91,17.4-2.78,23.57-8.97,1.21-1.13,2.41-2.31,3.13-3.45.87-1.47,1.41-3.83.03-4.85-1.89-.63-3.96,1.09-5.49,2.45-4.33,4.19-8.54,12.51-4.81,18.16,1.01,1.28,2.47,2.08,3.99,2.65,1.39.48,2.99,1.15,4.47.93,1.33-.15,2.53-1.21,2.64-2.28.06-2.78-5.45-1.41-7.16-.77-9.34,3.46-17.86,12.19-18.18,22.55.2,15.51,12.62,22.64,26.81,21.01,9.21-1.16,17.49-8.7,17.48-18.52.32-8.73-7.35-15.3-15.6-15.13-2.05.05-4.07.41-5.57,1.72-2.21,1.86-2.6,4.64.46,6.01,2.88,1.3,6.53.78,9.3-.9,3.03-1.73,4.64-4.73,6.49-7.65,3.36-5.1,9.07-14.76,16.42-12.58,4.27,1.58,3.06,7.07,1.2,10.05,0,0-.87-.46-.87-.46,1.37-2.59,2.71-7.01-.79-8.34-7.79-1.89-13.48,11.67-17.32,16.83-3.41,4.5-9.72,7.12-15.19,4.64-1.86-.84-3.57-2.83-3.19-5.04.74-4.16,5.25-6.19,9.03-6.16,21.81.54,24.4,24.79,9.83,36.03-12.5,9.64-33.85,4.4-38.81-10.7-3.47-8.76-1.63-18.82,4.61-25.83,2.26-2.84,5.18-5.15,8.27-7.04,3.19-1.91,6.56-3.61,10.45-3.65,6.78-.04,5.74,7.8.05,8.58-3.9.38-7.88-1.91-9.92-5.19-2.79-4.97-1.28-11.13,1.15-15.93,1.86-3.34,4.07-6.48,7.81-8.09,2.44-1.06,5.4.09,6.18,2.78,2.02,7.79-6.3,11.96-11.89,14.93-5.81,2.61-12.13,3.7-18.44,4.19-26.15,1.89-14.28-21.08,3.87-21.38,0,0,0,.99,0,.99h0Z"/><path d="M27.43,81.57c-1.01-.44-2.89-2.48-2.93-4.5-.03-1.67-.01-3.09-.01-3.31-.07-.64-.95-8.5-.36-10.85.63-2.5,4.87-5.56,7.68-5.55,2.69.01,10.54,4.87,10.88,5.08.19.14,3.9,2.94,4.78,4.39,1.01,1.65-.31,7.75-1.4,9.01-1.1,1.27-8.7,5.15-11.44,5.85-2.63.67-6.07.37-7.2-.12ZM34.56,59.12c-1.14-.49-2.13-.82-2.74-.82-2.39,0-6.25,2.75-6.77,4.84-.56,2.24.37,10.46.38,10.54v.06s-.02,1.52.01,3.31c.03,1.65,1.65,3.35,2.36,3.66.87.38,4.12.7,6.6.07,2.71-.69,10.07-4.52,10.97-5.55,1.14-1.31,1.92-6.92,1.31-7.91-.66-1.08-3.48-3.33-4.51-4.1-1.52-.94-4.97-2.95-7.61-4.09Z"/><path d="M39.79,62.4s-3.64-3.03-3.95-3.5-1.49-3.2-1.23-4.17-.3-1.79.61-1.42c.71.29,2.4,2.7,3.12,3.76.17.25.52.27.72.04.9-1.03,3.06-3.42,3.39-2.99.42.55.72,1.49.47,2.18-.2.54-.79,1.76-1.03,2.26-.03.06.04.12.1.09.77-.5,3.48-2.22,3.97-2.36.92-.26.15,1.38-.3,1.91s-2.06,2.2-2.06,2.2c0,0,5.07.29,4.76.97s-2.07,1-2.64,1.13-2.7.59-2.7.59l-3.24-.68Z"/><path d="M41.84,64.79s.06.05.09.1c.2.31.32.65.47.98.02.05.02.09-.03.13-.09.09-.13.21-.17.34-.05.14-.2.16-.32.17-.12.01-.19-.07-.23-.17-.1-.25-.24-.49-.31-.74-.07-.24.06-.52.2-.75.05-.08.17-.11.3-.07Z"/><path d="M42.26,69.81c-.1.25-.38.29-.57.05-.21-.28-.47-.57-.31-.99.04-.1.02-.23.02-.34,0-.18.09-.3.24-.35.18-.06.26.07.31.21.13.39.25.78.37,1.16.03.09-.02.18-.06.26Z"/><path d="M44.89,68.34c-.07.15-.2.15-.33.17-.12.02-.2-.01-.24-.13-.18-.54-.45-1.06-.45-1.65,0-.07,0-.13.05-.17.06-.05.13-.02.17.02.44.47.88.94.81,1.65,0,.04,0,.08,0,.11Z"/><path d="M39.53,64.35c-.11.15-.19.28-.29.39-.17.19-.34.19-.48-.01-.14-.2-.24-.42-.36-.63-.02-.03-.02-.09,0-.11.18-.23.31-.51.62-.6.12-.04.25-.03.31.08.13.24.21.49.23.76,0,.05-.03.1-.03.12Z"/><path d="M44.75,73.11c-.21-.1-.36-.23-.41-.5-.05-.29-.02-.58-.06-.87-.01-.1.04-.21.13-.27.06-.04.16-.08.21,0,.25.39.58.74.63,1.24.01.11-.02.2-.07.29-.11.21-.2.23-.44.11Z"/><path d="M37.2,62.45c-.1.28-.61.53-.9.45-.15-.04-.39-.45-.4-.66,0-.21.16-.27.31-.34.1-.04.19-.08.29-.1.46-.11.71.1.7.57,0,.03,0,.05,0,.08Z"/><path d="M33.43,60.28c.21.09.39.48.32.7-.01.04-.03.07-.06.1-.27.28-.93.21-1.1-.14-.08-.16-.25-.33-.13-.53.13-.21.35-.19.55-.2.14,0,.28.02.41.08Z"/><path d="M28.99,65.17c-.11.27-.78.66-.85.72-.25.21-.51.12-.55-.21-.04-.45-.07-.51.36-.74.24-.13.51-.17.78-.14.15.02.3.25.25.37Z"/><path d="M38.71,67.63c.05-.11.08-.22.14-.32.06-.11.14-.18.28-.15.12.03.22.07.24.21.02.09.07.18.06.26-.05.26-.01.51-.02.76,0,.12-.03.23-.12.32-.1.09-.24-.09-.34.05-.01.02-.06-.02-.09-.05-.25-.33-.54-.65-.16-1.08Z"/><path d="M33.27,77.1c.23-.36.38-.5.78-.67.09-.04.2-.12.29-.04.1.09.13.25.05.36-.17.23-.22.51-.38.74-.13.18-.45.22-.62.11-.05-.03-.17-.43-.13-.49Z"/><path d="M31.77,64.01c.24-.1.46-.22.7-.3.18-.05.3,0,.4.14.11.15.08.29-.04.41-.19.18-.39.36-.6.52-.16.12-.35.08-.45-.1-.08-.15-.35-.46,0-.68Z"/><path d="M27.68,75.84c-.1.3-.19.61-.11.93,0,.02,0,.05,0,.08-.03.36-.08.41-.35.4-.35-.01-.51-.18-.45-.52.03-.19.09-.38.16-.55.14-.34.34-.43.75-.33Z"/><path d="M42.66,73.17c.08-.09.02-.29.2-.29.18,0,.26.14.31.29.07.22.19.42.21.65.02.17,0,.35-.17.44-.18.1-.34.05-.5-.08-.23-.2-.28-.35-.18-.64.04-.12.05-.25.13-.36Z"/><path d="M29.78,77.86c-.06.12-.08.34-.11.56-.04.28-.11.36-.29.36-.26,0-.46-.16-.48-.4-.02-.23.05-.43.21-.6.11-.11.22-.21.35-.29.13-.09.25-.13.38-.03.16.12.02.22-.07.4Z"/><path d="M30.37,62.29c-.09.24-.29.37-.49.49-.15.09-.3.07-.43-.11-.29-.4-.17-.76.29-.86.08-.02.15-.03.23-.04.12-.02.26-.15.35-.01.11.16.16.35.04.53Z"/><path d="M26.29,64.3c-.1-.03-.34-.33-.33-.43,0-.12.07-.22.16-.3.21-.18.42-.36.61-.57.07-.08.19-.16.31-.06.1.09.2.18.1.36-.25.5-.42,1.15-.85,1.01Z"/><path d="M36.58,66.19c-.06.13-.18.24-.33.27-.15.03-.24-.09-.32-.22-.27-.43-.42-.41.14-.85.12-.09.24-.23.41-.14.16.09.18.27.21.43.02.17-.07.32-.11.51Z"/><path d="M28.32,74.29c.13-.26.24-.48.46-.61.2-.11.42,0,.4.22-.03.24-.06.48-.2.69-.16.24-.59.25-.72,0-.07-.13.04-.24.06-.31Z"/><path d="M31.59,79.48c-.15-.02-.24-.11-.24-.25,0-.15.06-.28.21-.33.24-.09.48-.17.72-.26.09-.03.19-.03.24.07.05.1-.07.3-.14.36-.13.11-.38.6-.78.41Z"/><path d="M26.99,72.2s.04-.09.06-.14c.06-.14.19-.19.31-.17.14.03.19.15.18.3-.01.25-.1.48-.19.7-.07.17-.2.17-.33.04-.25-.24-.14-.49-.03-.74Z"/><path d="M31.82,75.46c.06.28-.04.52-.17.76-.14.25-.35.28-.58.12-.09-.07-.15-.17-.09-.26.18-.26.38-.52.69-.63.05-.02.1-.02.15.02Z"/><path d="M28.95,60.84s-.09.08-.14.1c-.15.06-.31.11-.47.15-.17.03-.32-.09-.37-.25-.05-.18.08-.22.2-.27.14-.06.29-.1.43-.15.11-.04.22-.1.32,0,.1.12.07.26.04.42Z"/><path d="M37.22,77.63c-.09.24-.27.41-.46.56-.1.08-.19.09-.29,0-.24-.21-.24-.31.04-.59.16-.15.31-.3.51-.33.09-.01.19-.08.26.03.06.1-.01.2-.06.32Z"/><path d="M33.04,80.13c-.16-.06-.19-.22-.06-.36.15-.17.6-.23.79-.1.06.04.08.09.04.16-.16.29-.48.42-.77.3Z"/><path d="M32.73,74.87c-.82-.35-1.61-.83-2.23-1.47-1.83-1.89-2.1-4.59-2.11-4.71v-.12s.23-.56.23-.56l.11-.08c.07-.05,1.83-1.24,4.8-.16,2.82,1.03,5.16,2.62,6.11,4.13.45.71.8,1.33,1.01,1.73.17.31.19.67.05,1-.14.32-.41.56-.75.65-.86.23-2.07.5-2.88.51-.74,0-2.61-.18-4.34-.93ZM29.34,68.71c.07.5.44,2.59,1.84,4.03,1.58,1.63,4.64,2.13,5.88,2.12.56,0,1.5-.18,2.65-.48.08-.02.12-.08.13-.11s.03-.1,0-.18c-.21-.38-.55-.99-.98-1.68-.83-1.33-3.05-2.8-5.64-3.75-2.14-.78-3.47-.21-3.84-.02l-.03.07Z"/><path d="M36.62,72.8c-.84,1.46-2.08,2.57-3.81,1.66-1.9-1-1.78-2.49-1.11-4.04.67-1.55,1.96-2.01,3.16-1.49,2.21.95,2.72,2.22,1.77,3.87Z"/><path d="M123.67,74.27c-.85-.18-2.28-.4-3.8-.32.58.27.95.83,1.14,1.68.21.97.23,1.95-.24,2.65,1.74-.94,2.67-2.63,3.09-3.65.04-.1.01-.18,0-.23-.02-.04-.07-.11-.18-.14Z"/><path d="M116.15,77.09c-.3-.86-.22-1.59.12-2.14-1.39.83-2.5,2.03-3.05,2.64-.06.06-.06.12-.05.16,0,.03.02.09.09.13h0c.11.06.23.13.35.19.94.53,2.15,1.2,4.09,1.05-.77-.32-1.23-1.1-1.55-2.03Z"/><path d="M133.95,78.3c-2.25-2.85-5.99-3.46-7.91-6.18-.13-.18-.24-.36-.35-.56,0,0-.46-.79-.99-1.8-.54-1.04-1.15-2.32-1.37-3.22-.44-1.76-.74-4.09-3.51-4.5-2.64-.39-8.63,2.79-9.99,9.75-.07.33-.12.67-.17,1.02-.4,3.22-.4,7.41.36,11.38,1.05,5.49,3.55,10.56,8.48,12.11,8.82,2.76,15.71-2.77,17-7,.49-1.6,1.82-6.73-1.55-11.01ZM111.86,76.32l.6-.67.84.64c.34-.35.75-.73,1.22-1.12l-.83-1.01.75-.51.8.98c.48-.34,1.01-.64,1.58-.88l-.42-1.19.82-.36.44,1.27s.04-.01.05-.02c.59-.16,1.2-.25,1.79-.3v-1.24s.89-.06.89-.06v1.26c.63,0,1.24.03,1.78.09l.17-1.23.89.06-.19,1.29c.3.05.57.1.8.15.32.07.59.27.75.56.15.29.17.63.04.93-.55,1.33-1.88,3.68-4.57,4.54-.65.2-1.24.34-1.79.41-2.49.34-4-.51-5.06-1.11-.12-.07-.23-.13-.34-.19-.28-.15-.46-.41-.52-.72-.05-.31.04-.62.25-.85.03-.03.06-.07.09-.1l-.83-.62Z"/></g></g></svg>